<svg xmlns="http://www.w3.org/2000/svg" x="0px" y="0px"
	 viewBox="0 0 50 50" style="enable-background:new 0 0 50 50;" xml:space="preserve">
<style>
		.wdt-custom-feature-icon-class-1 { fill: #A3FF00; }
	</style>
<g>
	<path class="wdt-custom-feature-icon-class-1" d="M23.6,28.3c-0.2,0-0.5-0.1-0.7-0.2c-0.6-0.4-0.8-1.2-0.4-1.8l3.9-6.2h-5.1c-0.5,0-0.9-0.3-1.2-0.7
		c-0.2-0.4-0.2-0.9,0-1.3l5.2-8.2c0.4-0.6,1.2-0.8,1.8-0.4c0.6,0.4,0.8,1.2,0.4,1.8l-3.9,6.2h5.1c0.5,0,0.9,0.3,1.2,0.7
		c0.2,0.4,0.2,0.9,0,1.3l-5.2,8.2C24.5,28.1,24,28.3,23.6,28.3z"/>
	<path class="wdt-custom-feature-icon-class-1" d="M25,45.1C25,45.1,25,45.1,25,45.1c-0.9,0-1.6-0.6-1.9-1.4c-0.8-2.4-2.4-6.8-4.2-9.3c-1.1-1.5-2.3-2.9-3.4-4.3
		C12.3,26.4,9.2,22.7,9,17l0,0C8.8,9,14.8,1.8,22.7,0.7C27.3,0,32,1.4,35.5,4.4c3.5,3,5.5,7.5,5.5,12.1c0,6.2-3,9.7-6.2,13.3
		c-1.2,1.3-2.4,2.7-3.5,4.3c-1.9,2.7-3.6,7.2-4.4,9.7C26.6,44.6,25.9,45.1,25,45.1z M25.6,42.9L25.6,42.9L25.6,42.9z M25,3.1
		c-0.7,0-1.3,0-2,0.1c-6.6,0.9-11.6,6.9-11.4,13.6l0,0c0.1,4.8,2.8,7.9,5.9,11.6c1.2,1.4,2.4,2.8,3.5,4.4c1.6,2.2,2.9,5.5,3.9,8.3
		c1.1-2.9,2.5-6.3,4.2-8.6c1.2-1.7,2.4-3.1,3.7-4.5c3.1-3.5,5.5-6.3,5.5-11.5c0-3.9-1.7-7.6-4.6-10.1C31.3,4.3,28.2,3.1,25,3.1z"/>
	<path class="wdt-custom-feature-icon-class-1" d="M25,49.5c-0.3,0-0.7,0-1,0c-5.7-0.2-9.7-2.4-9.7-5.3c0-2,1.8-3.6,4.9-4.6c0.7-0.2,1.4,0.2,1.6,0.9
		c0.2,0.7-0.2,1.4-0.9,1.7c-2.2,0.7-3,1.6-3,2c0,0.8,2.5,2.5,7.2,2.7c0.7,0,1.3,0,1.9,0c4.6-0.2,7-1.9,7-2.7c0-0.4-0.8-1.3-3-2
		c-0.7-0.2-1.1-1-0.9-1.7c0.2-0.7,1-1.1,1.7-0.9c3.1,1,4.8,2.6,4.8,4.5c0,2.9-3.9,5.1-9.5,5.3C25.8,49.5,25.4,49.5,25,49.5z"/>
</g>
</svg>
