<svg xmlns="http://www.w3.org/2000/svg" x="0px" y="0px" viewBox="0 0 50 50" style="enable-background:new 0 0 50 50;" xml:space="preserve"><g>	<path d="M37.6,16.7H7.7c-0.8,0-1.5,0.7-1.5,1.6v13.4c0,0.9,0.7,1.6,1.5,1.6h29.8c0.8,0,1.5-0.7,1.5-1.6V18.3  C39,17.4,38.4,16.7,37.6,16.7z M26.1,19.9v10.3h-7V19.9H26.1z M9.2,19.9h7v10.3h-7V19.9z M36.1,30.1h-7V19.9h7V30.1z"></path>	<path d="M45.4,18.4h-0.1v-1.8c0-3.6-2.8-6.6-6.2-6.6H6.2C2.8,10,0,13,0,16.6v16.8C0,37,2.8,40,6.2,40h32.9  c3.4,0,6.2-3,6.2-6.6v-1.8h0.1c2.6,0,4.6-2.2,4.6-4.9v-3.4C50,20.6,48,18.4,45.4,18.4z M42.4,33.4c0,1.9-1.5,3.5-3.2,3.5H6.2  c-1.8,0-3.2-1.6-3.2-3.5V16.6c0-1.9,1.5-3.5,3.2-3.5h32.9c1.8,0,3.2,1.6,3.2,3.5V33.4z M47.1,26.7c0,1-0.7,1.8-1.7,1.8h-0.1v-6.9  h0.1c0.9,0,1.7,0.8,1.7,1.8V26.7z"></path></g></svg>